<svg width="22" height="22" viewBox="0 0 22 22" fill="none" xmlns="http://www.w3.org/2000/svg">
<path d="M21.7861 8.84565H20.9V8.8H11V13.2H17.2167C16.3097 15.7614 13.8727 17.6 11 17.6C7.35515 17.6 4.4 14.6448 4.4 11C4.4 7.35515 7.35515 4.4 11 4.4C12.6825 4.4 14.2131 5.0347 15.3786 6.07145L18.4899 2.9601C16.5253 1.12915 13.8974 0 11 0C4.92525 0 0 4.92525 0 11C0 17.0748 4.92525 22 11 22C17.0748 22 22 17.0748 22 11C22 10.2625 21.9241 9.5425 21.7861 8.84565Z" fill="#FFC107"/>
<path d="M1.26855 5.88005L4.8826 8.5305C5.8605 6.1094 8.2288 4.4 11.0003 4.4C12.6827 4.4 14.2134 5.0347 15.3788 6.07145L18.4902 2.9601C16.5256 1.12915 13.8977 0 11.0003 0C6.77515 0 3.11105 2.38535 1.26855 5.88005Z" fill="#FF3D00"/>
<path d="M10.9998 21.9998C13.8411 21.9998 16.4228 20.9124 18.3747 19.1442L14.9702 16.2633C13.8658 17.0998 12.493 17.5998 10.9998 17.5998C8.13868 17.5998 5.70933 15.7754 4.79413 13.2295L1.20703 15.9932C3.02753 19.5556 6.72463 21.9998 10.9998 21.9998Z" fill="#4CAF50"/>
<path d="M21.786 8.84594H20.9V8.80029H11V13.2003H17.2167C16.7811 14.4306 15.9896 15.4916 14.9688 16.2643C14.9693 16.2638 14.9699 16.2638 14.9704 16.2632L18.375 19.1441C18.1341 19.363 22 16.5003 22 11.0003C22 10.2627 21.9241 9.54279 21.786 8.84594Z" fill="#1976D2"/>
</svg>
