<svg width="22" height="22" viewBox="0 0 22 22" fill="none" xmlns="http://www.w3.org/2000/svg">
<path fill-rule="evenodd" clip-rule="evenodd" d="M5.25476 16.7452C2.08175 13.5722 2.08175 8.42777 5.25476 5.25476C8.42777 2.08175 13.5722 2.08175 16.7452 5.25476C19.9183 8.42777 19.9183 13.5722 16.7452 16.7452C13.5722 19.9183 8.42777 19.9183 5.25476 16.7452ZM3.92893 3.92893C0.0236893 7.83418 0.0236893 14.1658 3.92893 18.0711C7.83418 21.9763 14.1658 21.9763 18.0711 18.0711C21.9763 14.1658 21.9763 7.83418 18.0711 3.92893C14.1658 0.0236892 7.83418 0.0236892 3.92893 3.92893ZM8.53885 7.21209C8.17273 6.84597 7.57914 6.84597 7.21302 7.21209C6.8469 7.5782 6.8469 8.1718 7.21302 8.53791L9.67511 11L7.21302 13.4621C6.8469 13.8282 6.8469 14.4218 7.21302 14.7879C7.57913 15.154 8.17273 15.154 8.53884 14.7879L11.0009 12.3258L13.463 14.7879C13.8291 15.154 14.4227 15.154 14.7888 14.7879C15.155 14.4218 15.155 13.8282 14.7888 13.4621L12.3268 11L14.7888 8.53792C15.155 8.1718 15.155 7.57821 14.7888 7.21209C14.4227 6.84598 13.8291 6.84598 13.463 7.21209L11.0009 9.67418L8.53885 7.21209Z" fill="#D74430"/>
</svg>
